<?xml version="1.0" encoding="UTF-8" standalone="no"?>
<!DOCTYPE svg PUBLIC "-//W3C//DTD SVG 1.1//EN"
 "http://www.w3.org/Graphics/SVG/1.1/DTD/svg11.dtd">
<!-- Generated by graphviz version 2.40.1 (20161225.0304)
 -->
<!-- Title: breve.us/authsvc Pages: 1 -->
<svg width="554pt" height="332pt"
 viewBox="0.00 0.00 554.22 332.00" xmlns="http://www.w3.org/2000/svg" xmlns:xlink="http://www.w3.org/1999/xlink">
<g id="graph0" class="graph" transform="scale(1 1) rotate(0) translate(4 328)">
<title>breve.us/authsvc</title>
<polygon fill="#ffffff" stroke="transparent" points="-4,4 -4,-328 550.2221,-328 550.2221,4 -4,4"/>
<!-- breve.us/authsvc/authentication -->
<g id="node1" class="node">
<title>breve.us/authsvc/authentication</title>
<polygon fill="none" stroke="#000000" points="207.994,-180 21.2205,-180 21.2205,-144 213.994,-144 213.994,-174 207.994,-180"/>
<polyline fill="none" stroke="#000000" points="207.994,-180 207.994,-174 "/>
<polyline fill="none" stroke="#000000" points="213.994,-174 207.994,-174 "/>
<text text-anchor="middle" x="117.6072" y="-157.8" font-family="Times,serif" font-size="14.00" fill="#000000">breve.us/authsvc/authentication</text>
</g>
<!-- breve.us/authsvc/common -->
<g id="node2" class="node">
<title>breve.us/authsvc/common</title>
<polygon fill="none" stroke="#000000" points="267.684,-36 111.5305,-36 111.5305,0 273.684,0 273.684,-30 267.684,-36"/>
<polyline fill="none" stroke="#000000" points="267.684,-36 267.684,-30 "/>
<polyline fill="none" stroke="#000000" points="273.684,-30 267.684,-30 "/>
<text text-anchor="middle" x="192.6072" y="-13.8" font-family="Times,serif" font-size="14.00" fill="#000000">breve.us/authsvc/common</text>
</g>
<!-- breve.us/authsvc/authentication&#45;&gt;breve.us/authsvc/common -->
<g id="edge1" class="edge">
<title>breve.us/authsvc/authentication&#45;&gt;breve.us/authsvc/common</title>
<path fill="none" stroke="#000000" d="M121.812,-143.9708C126.6346,-125.2213 135.5912,-95.3949 148.6072,-72 154.043,-62.2299 161.2912,-52.4736 168.3339,-43.9955"/>
<polygon fill="#000000" stroke="#000000" points="171.0868,-46.1624 174.9573,-36.2999 165.7812,-41.5961 171.0868,-46.1624"/>
</g>
<!-- breve.us/authsvc/user -->
<g id="node3" class="node">
<title>breve.us/authsvc/user</title>
<polygon fill="none" stroke="#000000" points="288.0145,-108 157.2,-108 157.2,-72 294.0145,-72 294.0145,-102 288.0145,-108"/>
<polyline fill="none" stroke="#000000" points="288.0145,-108 288.0145,-102 "/>
<polyline fill="none" stroke="#000000" points="294.0145,-102 288.0145,-102 "/>
<text text-anchor="middle" x="225.6072" y="-85.8" font-family="Times,serif" font-size="14.00" fill="#000000">breve.us/authsvc/user</text>
</g>
<!-- breve.us/authsvc/authentication&#45;&gt;breve.us/authsvc/user -->
<g id="edge2" class="edge">
<title>breve.us/authsvc/authentication&#45;&gt;breve.us/authsvc/user</title>
<path fill="none" stroke="#000000" d="M144.8602,-143.8314C158.5462,-134.7074 175.2987,-123.539 189.99,-113.7449"/>
<polygon fill="#000000" stroke="#000000" points="191.9839,-116.6221 198.363,-108.1628 188.101,-110.7977 191.9839,-116.6221"/>
</g>
<!-- breve.us/authsvc/user&#45;&gt;breve.us/authsvc/common -->
<g id="edge16" class="edge">
<title>breve.us/authsvc/user&#45;&gt;breve.us/authsvc/common</title>
<path fill="none" stroke="#000000" d="M217.2799,-71.8314C213.6342,-63.8771 209.2764,-54.369 205.2445,-45.5723"/>
<polygon fill="#000000" stroke="#000000" points="208.395,-44.0456 201.0467,-36.4133 202.0315,-46.9622 208.395,-44.0456"/>
</g>
<!-- breve.us/authsvc/store -->
<g id="node6" class="node">
<title>breve.us/authsvc/store</title>
<polygon fill="none" stroke="#000000" points="456.9043,-36 322.3102,-36 322.3102,0 462.9043,0 462.9043,-30 456.9043,-36"/>
<polyline fill="none" stroke="#000000" points="456.9043,-36 456.9043,-30 "/>
<polyline fill="none" stroke="#000000" points="462.9043,-30 456.9043,-30 "/>
<text text-anchor="middle" x="392.6072" y="-13.8" font-family="Times,serif" font-size="14.00" fill="#000000">breve.us/authsvc/store</text>
</g>
<!-- breve.us/authsvc/user&#45;&gt;breve.us/authsvc/store -->
<g id="edge17" class="edge">
<title>breve.us/authsvc/user&#45;&gt;breve.us/authsvc/store</title>
<path fill="none" stroke="#000000" d="M267.7484,-71.8314C290.0837,-62.2018 317.7009,-50.295 341.2782,-40.1299"/>
<polygon fill="#000000" stroke="#000000" points="342.9719,-43.2112 350.7691,-36.038 340.2005,-36.7831 342.9719,-43.2112"/>
</g>
<!-- breve.us/authsvc/authorization -->
<g id="node4" class="node">
<title>breve.us/authsvc/authorization</title>
<polygon fill="none" stroke="#000000" points="451.5531,-180 269.6614,-180 269.6614,-144 457.5531,-144 457.5531,-174 451.5531,-180"/>
<polyline fill="none" stroke="#000000" points="451.5531,-180 451.5531,-174 "/>
<polyline fill="none" stroke="#000000" points="457.5531,-174 451.5531,-174 "/>
<text text-anchor="middle" x="363.6072" y="-157.8" font-family="Times,serif" font-size="14.00" fill="#000000">breve.us/authsvc/authorization</text>
</g>
<!-- breve.us/authsvc/authorization&#45;&gt;breve.us/authsvc/common -->
<g id="edge4" class="edge">
<title>breve.us/authsvc/authorization&#45;&gt;breve.us/authsvc/common</title>
<path fill="none" stroke="#000000" d="M354.8726,-143.7153C344.6565,-123.9171 326.1094,-92.4367 302.6072,-72 287.9106,-59.2203 269.6582,-48.6752 252.2726,-40.4007"/>
<polygon fill="#000000" stroke="#000000" points="253.281,-37.0133 242.7312,-36.0376 250.3699,-43.3793 253.281,-37.0133"/>
</g>
<!-- breve.us/authsvc/authorization&#45;&gt;breve.us/authsvc/user -->
<g id="edge6" class="edge">
<title>breve.us/authsvc/authorization&#45;&gt;breve.us/authsvc/user</title>
<path fill="none" stroke="#000000" d="M328.784,-143.8314C310.8061,-134.4516 288.687,-122.9112 269.5456,-112.9244"/>
<polygon fill="#000000" stroke="#000000" points="270.9042,-109.6855 260.4193,-108.1628 267.6662,-115.8916 270.9042,-109.6855"/>
</g>
<!-- breve.us/authsvc/client -->
<g id="node5" class="node">
<title>breve.us/authsvc/client</title>
<polygon fill="none" stroke="#000000" points="525.7873,-108 387.4272,-108 387.4272,-72 531.7873,-72 531.7873,-102 525.7873,-108"/>
<polyline fill="none" stroke="#000000" points="525.7873,-108 525.7873,-102 "/>
<polyline fill="none" stroke="#000000" points="531.7873,-102 525.7873,-102 "/>
<text text-anchor="middle" x="459.6072" y="-85.8" font-family="Times,serif" font-size="14.00" fill="#000000">breve.us/authsvc/client</text>
</g>
<!-- breve.us/authsvc/authorization&#45;&gt;breve.us/authsvc/client -->
<g id="edge3" class="edge">
<title>breve.us/authsvc/authorization&#45;&gt;breve.us/authsvc/client</title>
<path fill="none" stroke="#000000" d="M387.8321,-143.8314C399.77,-134.8779 414.3328,-123.9558 427.2133,-114.2955"/>
<polygon fill="#000000" stroke="#000000" points="429.4901,-116.9629 435.3901,-108.1628 425.2901,-111.3629 429.4901,-116.9629"/>
</g>
<!-- breve.us/authsvc/authorization&#45;&gt;breve.us/authsvc/store -->
<g id="edge5" class="edge">
<title>breve.us/authsvc/authorization&#45;&gt;breve.us/authsvc/store</title>
<path fill="none" stroke="#000000" d="M366.1306,-143.9822C368.7963,-125.7496 373.3384,-96.7911 378.6072,-72 380.3909,-63.6072 382.6168,-54.5561 384.7651,-46.3075"/>
<polygon fill="#000000" stroke="#000000" points="388.2126,-46.9625 387.4057,-36.3985 381.4487,-45.16 388.2126,-46.9625"/>
</g>
<!-- breve.us/authsvc/client&#45;&gt;breve.us/authsvc/store -->
<g id="edge7" class="edge">
<title>breve.us/authsvc/client&#45;&gt;breve.us/authsvc/store</title>
<path fill="none" stroke="#000000" d="M442.7003,-71.8314C434.826,-63.3694 425.3152,-53.1489 416.7059,-43.8971"/>
<polygon fill="#000000" stroke="#000000" points="419.1164,-41.3497 409.7418,-36.4133 413.9919,-46.1183 419.1164,-41.3497"/>
</g>
<!-- breve.us/authsvc/cmd -->
<g id="node7" class="node">
<title>breve.us/authsvc/cmd</title>
<polygon fill="none" stroke="#000000" points="365.2941,-252 233.9204,-252 233.9204,-216 371.2941,-216 371.2941,-246 365.2941,-252"/>
<polyline fill="none" stroke="#000000" points="365.2941,-252 365.2941,-246 "/>
<polyline fill="none" stroke="#000000" points="371.2941,-246 365.2941,-246 "/>
<text text-anchor="middle" x="302.6072" y="-229.8" font-family="Times,serif" font-size="14.00" fill="#000000">breve.us/authsvc/cmd</text>
</g>
<!-- breve.us/authsvc/cmd&#45;&gt;breve.us/authsvc/authentication -->
<g id="edge8" class="edge">
<title>breve.us/authsvc/cmd&#45;&gt;breve.us/authsvc/authentication</title>
<path fill="none" stroke="#000000" d="M255.9239,-215.8314C230.8514,-206.0734 199.7705,-193.977 173.4264,-183.7242"/>
<polygon fill="#000000" stroke="#000000" points="174.5434,-180.4033 163.9549,-180.038 172.0045,-186.9266 174.5434,-180.4033"/>
</g>
<!-- breve.us/authsvc/cmd&#45;&gt;breve.us/authsvc/common -->
<g id="edge11" class="edge">
<title>breve.us/authsvc/cmd&#45;&gt;breve.us/authsvc/common</title>
<path fill="none" stroke="#000000" d="M233.7937,-231.0172C157.0949,-226.0792 40.183,-213.1845 12.6072,-180 -34.0995,-123.7933 65.6092,-69.2266 134.4347,-39.9864"/>
<polygon fill="#000000" stroke="#000000" points="136.0395,-43.1094 143.9228,-36.031 133.346,-36.6483 136.0395,-43.1094"/>
</g>
<!-- breve.us/authsvc/cmd&#45;&gt;breve.us/authsvc/user -->
<g id="edge13" class="edge">
<title>breve.us/authsvc/cmd&#45;&gt;breve.us/authsvc/user</title>
<path fill="none" stroke="#000000" d="M286.4187,-215.9521C277.9544,-205.8798 267.8733,-192.81 260.6072,-180 249.423,-160.2824 240.2892,-136.2859 234.16,-118.0313"/>
<polygon fill="#000000" stroke="#000000" points="237.4107,-116.7099 230.9879,-108.2838 230.7543,-118.8761 237.4107,-116.7099"/>
</g>
<!-- breve.us/authsvc/cmd&#45;&gt;breve.us/authsvc/authorization -->
<g id="edge9" class="edge">
<title>breve.us/authsvc/cmd&#45;&gt;breve.us/authsvc/authorization</title>
<path fill="none" stroke="#000000" d="M318.0001,-215.8314C325.0976,-207.454 333.6553,-197.3531 341.4313,-188.1749"/>
<polygon fill="#000000" stroke="#000000" points="344.2134,-190.3056 348.0071,-180.4133 338.8725,-185.7807 344.2134,-190.3056"/>
</g>
<!-- breve.us/authsvc/cmd&#45;&gt;breve.us/authsvc/client -->
<g id="edge10" class="edge">
<title>breve.us/authsvc/cmd&#45;&gt;breve.us/authsvc/client</title>
<path fill="none" stroke="#000000" d="M371.7124,-219.7659C411.1128,-210.0944 454.922,-196.1499 466.6072,-180 479.4564,-162.2414 476.1761,-137.0233 470.5554,-117.7974"/>
<polygon fill="#000000" stroke="#000000" points="473.8152,-116.5051 467.3781,-108.09 467.1625,-118.6827 473.8152,-116.5051"/>
</g>
<!-- breve.us/authsvc/cmd&#45;&gt;breve.us/authsvc/store -->
<g id="edge12" class="edge">
<title>breve.us/authsvc/cmd&#45;&gt;breve.us/authsvc/store</title>
<path fill="none" stroke="#000000" d="M371.4054,-224.3065C407.7765,-216.6814 451.7692,-203.2843 485.6072,-180 518.7805,-157.1731 527.7048,-146.1452 540.6072,-108 545.7338,-92.8436 549.7793,-85.1101 540.6072,-72 531.9062,-59.5632 502.9311,-47.7602 472.8971,-38.3792"/>
<polygon fill="#000000" stroke="#000000" points="473.7182,-34.9709 463.1329,-35.4208 471.6883,-41.6701 473.7182,-34.9709"/>
</g>
<!-- breve.us/authsvc/cmd/authsvc -->
<g id="node8" class="node">
<title>breve.us/authsvc/cmd/authsvc</title>
<polygon fill="none" stroke="#000000" points="282.9494,-324 104.2651,-324 104.2651,-288 288.9494,-288 288.9494,-318 282.9494,-324"/>
<polyline fill="none" stroke="#000000" points="282.9494,-324 282.9494,-318 "/>
<polyline fill="none" stroke="#000000" points="288.9494,-318 282.9494,-318 "/>
<text text-anchor="middle" x="196.6072" y="-301.8" font-family="Times,serif" font-size="14.00" fill="#000000">breve.us/authsvc/cmd/authsvc</text>
</g>
<!-- breve.us/authsvc/cmd/authsvc&#45;&gt;breve.us/authsvc/cmd -->
<g id="edge14" class="edge">
<title>breve.us/authsvc/cmd/authsvc&#45;&gt;breve.us/authsvc/cmd</title>
<path fill="none" stroke="#000000" d="M223.3555,-287.8314C236.6625,-278.7927 252.9233,-267.7476 267.2447,-258.0198"/>
<polygon fill="#000000" stroke="#000000" points="269.5619,-260.677 275.8675,-252.1628 265.6287,-254.8864 269.5619,-260.677"/>
</g>
<!-- breve.us/authsvc/cmd/authsvc&#45;cli -->
<g id="node9" class="node">
<title>breve.us/authsvc/cmd/authsvc&#45;cli</title>
<polygon fill="none" stroke="#000000" points="504.1043,-324 307.1102,-324 307.1102,-288 510.1043,-288 510.1043,-318 504.1043,-324"/>
<polyline fill="none" stroke="#000000" points="504.1043,-324 504.1043,-318 "/>
<polyline fill="none" stroke="#000000" points="510.1043,-318 504.1043,-318 "/>
<text text-anchor="middle" x="408.6072" y="-301.8" font-family="Times,serif" font-size="14.00" fill="#000000">breve.us/authsvc/cmd/authsvc&#45;cli</text>
</g>
<!-- breve.us/authsvc/cmd/authsvc&#45;cli&#45;&gt;breve.us/authsvc/cmd -->
<g id="edge15" class="edge">
<title>breve.us/authsvc/cmd/authsvc&#45;cli&#45;&gt;breve.us/authsvc/cmd</title>
<path fill="none" stroke="#000000" d="M381.859,-287.8314C368.552,-278.7927 352.2912,-267.7476 337.9697,-258.0198"/>
<polygon fill="#000000" stroke="#000000" points="339.5857,-254.8864 329.347,-252.1628 335.6525,-260.677 339.5857,-254.8864"/>
</g>
</g>
</svg>
